<?xml version="1.0" encoding="UTF-8" standalone="no"?>
<!DOCTYPE svg PUBLIC "-//W3C//DTD SVG 1.1//EN" "http://www.w3.org/Graphics/SVG/1.1/DTD/svg11.dtd">
<svg width="100%" height="100%" viewBox="0 0 180 180" version="1.1" xmlns="http://www.w3.org/2000/svg" xmlns:xlink="http://www.w3.org/1999/xlink" xml:space="preserve" xmlns:serif="http://www.serif.com/" style="fill-rule:evenodd;clip-rule:evenodd;stroke-linejoin:round;stroke-miterlimit:2;">
    
    <g transform="matrix(0.723327,0,0,0.716405,24.4284,25.3505) translate(0,-50)">
        <g transform="matrix(9.26626,0,0,9.26626,16.011,72.835)">
            <path d="M6.002,5.5C6.002,6.323 5.325,7 4.502,7C3.679,7 3.002,6.323 3.002,5.5C3.002,4.677 3.679,4 4.502,4C5.325,4 6.002,4.677 6.002,5.5Z" style="fill:rgb(125,125,125);fill-rule:nonzero;"/>
        </g>
        <g transform="matrix(9.26626,0,0,9.26626,16.011,72.835)">
            <path d="M1.5,2C0.677,2 -0,2.677 0,3.5L0,12.5C0,13.323 0.677,14 1.5,14L14.5,14C15.323,14 16,13.323 16,12.5L16,3.5C16,2.677 15.323,2 14.5,2L1.5,2ZM14.5,3C14.774,3 15,3.226 15,3.5L15,9.5L11.225,7.553C11.033,7.457 10.8,7.495 10.648,7.646L6.938,11.356L4.278,9.584C4.081,9.453 3.816,9.479 3.648,9.646L1.002,12L1.002,12.54C1.001,12.527 1,12.513 1,12.5L1,3.5C1,3.226 1.226,3 1.5,3L14.5,3Z" style="fill:rgb(125,125,125);fill-rule:nonzero;"/>
        </g>
    </g>
</svg>
